<svg width="120" height="120" viewBox="0 0 120 120" fill="none" xmlns="http://www.w3.org/2000/svg">
<rect width="120" height="120" rx="8" fill="#F8F8FF"/>
<path d="M101.584 59.1975C101.584 56.6057 100.554 54.12 98.7215 52.2873C96.8888 50.4546 94.4031 49.425 91.8113 49.425C91.4681 49.4246 91.1251 49.4422 90.7838 49.4775L104.209 9.88499H47.16L60.5663 49.4437C60.3713 49.4437 60.1725 49.425 59.9738 49.425C57.6401 49.4223 55.3825 50.2549 53.6093 51.772C51.8361 53.2892 50.6643 55.3908 50.306 57.6968C49.9476 60.0028 50.4263 62.3609 51.6555 64.3447C52.8846 66.3284 54.7831 67.8068 57.0075 68.5125C54.9287 72.0917 52.3404 75.3496 49.3238 78.1837C45.397 81.9375 40.7318 84.8327 35.625 86.685C32.7638 85.329 30.526 82.9347 29.3663 79.9884C28.2067 77.0422 28.212 73.765 29.3813 70.8225C29.67 70.1475 29.9625 69.465 30.24 68.7825C32.419 68.2693 34.3558 67.0239 35.7269 65.2544C37.098 63.4849 37.8202 61.2984 37.773 59.0604C37.7258 56.8223 36.9119 54.6682 35.4674 52.9581C34.0229 51.248 32.0353 50.0854 29.8366 49.6646C27.638 49.2438 25.3615 49.5903 23.3877 50.6462C21.4138 51.7021 19.862 53.4034 18.9918 55.4659C18.1215 57.5283 17.9853 59.827 18.6061 61.9777C19.2269 64.1285 20.567 66.001 22.4025 67.2825C19.2831 72.9386 16.9024 78.9716 15.3188 85.2337C13.9913 93.24 15.3188 101.734 22.2375 106.537C38.3625 117.716 55.8713 99.6075 74.3288 95.0587C81.0188 93.4087 88.3613 93.675 94.2525 90.2625C96.3809 89.0503 98.2164 87.3844 99.6286 85.3831C101.041 83.3818 101.995 81.0941 102.424 78.6825C102.816 76.3845 102.742 74.0312 102.207 71.7624C101.671 69.4935 100.685 67.3554 99.3075 65.475C100.778 63.7181 101.582 61.4996 101.58 59.2087L101.584 59.1975ZM69.75 59.25V59.2162C69.7528 57.5345 69.3205 55.8806 68.4952 54.4153C67.6699 52.95 66.4796 51.7231 65.04 50.8537L75.705 29.25L86.3925 51.0525C85.0517 51.9435 83.9524 53.1526 83.1927 54.5718C82.433 55.9911 82.0366 57.5764 82.0388 59.1862C82.0388 59.2575 82.0388 59.3287 82.0388 59.4L69.75 59.25Z" fill="#C63D14"/>
<path d="M103.973 59.1975C103.969 56.3639 102.977 53.6204 101.168 51.4395C99.3585 49.2587 96.8454 47.7771 94.0613 47.25L107.539 7.5H43.8338L57.3338 47.3288C54.9769 47.8555 52.8305 49.0725 51.1683 50.8244C49.5061 52.5763 48.4034 54.7836 48.0011 57.1648C47.5987 59.546 47.9148 61.9931 48.9092 64.1939C49.9035 66.3947 51.5309 68.2493 53.5838 69.5212C51.8879 72.0407 49.9156 74.3626 47.7038 76.4438C44.2799 79.7195 40.2564 82.3042 35.8538 84.0563C33.7876 82.8569 32.2214 80.9548 31.4408 78.6969C30.6601 76.4389 30.7171 73.9757 31.6013 71.7563L31.7513 71.4075L32.0288 70.7513C34.5281 69.8847 36.677 68.2274 38.15 66.0302C39.6231 63.8331 40.3401 61.2157 40.1924 58.5746C40.0447 55.9334 39.0404 53.4123 37.3316 51.3931C35.6228 49.3738 33.3026 47.9664 30.7223 47.3839C28.1419 46.8013 25.4421 47.0755 23.0315 48.1648C20.6209 49.2542 18.631 51.0993 17.363 53.4209C16.095 55.7424 15.618 58.414 16.0043 61.0309C16.3906 63.6478 17.6191 66.0676 19.5038 67.9238C19.0988 68.79 18.6713 69.6675 18.2325 70.5713C15.8011 75.0417 14.0326 79.8419 12.9825 84.8212C11.2388 95.3212 14.0513 103.733 20.8988 108.476C24.5747 111.105 28.9834 112.512 33.5025 112.5C41.4975 112.5 49.5863 108.484 57.5025 104.554C63.0335 101.546 68.8689 99.1346 74.91 97.3612C77.0738 96.8287 79.3013 96.5062 81.66 96.165C86.4654 95.7811 91.1513 94.4721 95.46 92.31C97.8898 90.922 99.9848 89.0168 101.596 86.7292C103.208 84.4417 104.297 81.8277 104.786 79.0725C105.583 74.3916 104.663 69.5803 102.195 65.5237C103.362 63.6189 103.979 61.4278 103.976 59.1937L103.973 59.1975ZM99.1988 59.1975C99.1988 60.6586 98.7655 62.0869 97.9537 63.3018C97.142 64.5166 95.9882 65.4635 94.6383 66.0227C93.2884 66.5818 91.8031 66.7281 90.37 66.4431C88.937 66.158 87.6207 65.4544 86.5875 64.4213C85.5543 63.3881 84.8508 62.0718 84.5657 60.6387C84.2807 59.2057 84.427 57.7203 84.9861 56.3704C85.5452 55.0205 86.4921 53.8668 87.707 53.055C88.9218 52.2433 90.3501 51.81 91.8113 51.81C93.7699 51.812 95.6478 52.5909 97.0328 53.9759C98.4178 55.3609 99.1968 57.2388 99.1988 59.1975ZM100.875 12.2738L88.9725 47.3738C88.4628 47.4971 87.9617 47.6536 87.4725 47.8425L75.7163 23.8425L63.9225 47.7C63.409 47.5221 62.8841 47.3793 62.3513 47.2725L50.49 12.2738H100.875ZM59.9738 51.81C61.4349 51.81 62.8632 52.2433 64.078 53.055C65.2929 53.8668 66.2398 55.0205 66.7989 56.3704C67.3581 57.7203 67.5044 59.2057 67.2193 60.6387C66.9343 62.0718 66.2307 63.3881 65.1975 64.4213C64.1643 65.4544 62.848 66.158 61.415 66.4431C59.982 66.7281 58.4966 66.5818 57.1467 66.0227C55.7968 65.4635 54.643 64.5166 53.8313 63.3018C53.0195 62.0869 52.5863 60.6586 52.5863 59.1975C52.5882 57.2388 53.3672 55.3609 54.7522 53.9759C56.1372 52.5909 58.0151 51.812 59.9738 51.81ZM28.0163 51.8813C29.478 51.882 30.9067 52.3164 32.1215 53.1294C33.3362 53.9424 34.2825 55.0976 34.8405 56.4486C35.3985 57.7997 35.5432 59.2859 35.2562 60.7192C34.9692 62.1525 34.2634 63.4684 33.2283 64.5005C32.1931 65.5325 30.875 66.2342 29.4408 66.5169C28.0067 66.7995 26.5209 66.6503 25.1716 66.0881C23.8222 65.526 22.67 64.5762 21.8606 63.359C21.0513 62.1417 20.6213 60.7117 20.625 59.25C20.627 57.2913 21.406 55.4134 22.7909 54.0284C24.1759 52.6434 26.0538 51.8645 28.0125 51.8625L28.0163 51.8813ZM100.08 78.2587C99.7093 80.3259 98.8887 82.2862 97.6762 84.0009C96.4638 85.7156 94.8891 87.1427 93.0638 88.1812C89.2766 90.0201 85.1757 91.1258 80.9775 91.44C78.6075 91.7813 76.1588 92.1337 73.7625 92.7262C67.3835 94.5734 61.2228 97.1043 55.3875 100.275C43.5225 106.166 33.2625 111.255 23.6175 104.561C16.5413 99.6562 16.8675 90.5813 17.6925 85.6088C18.6634 81.0836 20.2826 76.7223 22.5 72.66C22.845 71.9512 23.1825 71.2537 23.5125 70.5637C24.5198 70.9664 25.5768 71.2313 26.655 71.3513C25.7006 74.7224 25.9673 78.3223 27.408 81.516C28.8488 84.7097 31.3711 87.292 34.53 88.8075L35.4488 89.28L36.42 88.935C41.8376 86.9795 46.787 83.9141 50.9513 79.935C53.7019 77.3474 56.1182 74.426 58.1438 71.2387C60.7355 71.633 63.3852 71.1786 65.6975 69.9435C68.0098 68.7084 69.8608 66.7587 70.9743 64.3854C72.0878 62.0121 72.404 59.3424 71.8759 56.7746C71.3477 54.2069 70.0035 51.8787 68.0438 50.1375L75.6863 34.6837L83.4075 50.4338C81.2106 52.551 79.8907 55.4172 79.7101 58.4629C79.5294 61.5086 80.5013 64.5108 82.4325 66.8728C84.3637 69.2349 87.1129 70.7839 90.1338 71.212C93.1546 71.6402 96.226 70.9161 98.7375 69.1837C100.13 71.9944 100.596 75.1741 100.069 78.2663L100.08 78.2587Z" fill="#EEEEEE"/>
</svg>
