<svg width="120" height="120" viewBox="0 0 120 120" fill="none" xmlns="http://www.w3.org/2000/svg">
<g clip-path="url(#clip0_17_2)">
<path d="M59.6887 0.0787674C54.6675 0.0975174 49.6687 0.723767 44.805 1.97252C21.405 7.79252 2.83123 28.9838 0.449985 53.0213C-2.50127 75.7575 9.00374 99.45 28.6687 111.188C47.9887 123.278 74.1375 122.794 93.045 110.078C110.04 99.0413 120.604 78.9413 119.981 58.6463C119.692 38.5725 108.42 19.0575 91.17 8.74502C81.7762 2.94377 70.725 0.0337674 59.6887 0.0750174V0.0787674ZM59.355 8.55377C84.0787 8.51252 108.3 27.6338 110.779 53.1825C115.507 81.4838 92.01 110.254 63.3375 111.094C36.0712 113.809 9.70124 90.6825 8.92124 63.3C6.89248 41.1338 21.5212 19.1213 42.4162 11.7938C47.805 9.64877 53.55 8.55377 59.3512 8.57252L59.355 8.55377ZM84.825 24.69C71.385 35.115 58.515 46.23 45.3712 56.9738C51.3862 57.0488 57.4425 57.0488 63.4762 57.0075C70.5262 46.1888 77.775 35.5125 84.825 24.69ZM56.505 62.9513C49.455 73.7925 42.1912 84.4913 35.1337 95.3325C48.615 84.9225 61.425 73.7325 74.6475 63.0488C68.5912 62.9738 62.5387 62.955 56.5012 62.955L56.505 62.9513Z" fill="black"/>
</g>
<defs>
<clipPath id="clip0_17_2">
<rect width="120" height="120" fill="white"/>
</clipPath>
</defs>
</svg>
