<svg width="120" height="120" viewBox="0 0 120 120" fill="none" xmlns="http://www.w3.org/2000/svg">
<path d="M106.694 44.0625H29.2531C24.8348 44.0625 21.2531 47.6442 21.2531 52.0625V105.128C21.2531 109.546 24.8348 113.128 29.2531 113.128H106.694C111.112 113.128 114.694 109.546 114.694 105.128V52.0625C114.694 47.6442 111.112 44.0625 106.694 44.0625Z" fill="white"/>
<path d="M1.40625 59.9156V110.509C1.40625 114.928 4.98797 118.509 9.40625 118.509H110.594C115.012 118.509 118.594 114.928 118.594 110.509V9.3219C118.594 4.90362 115.012 1.3219 110.594 1.3219H9.40625C4.98797 1.3219 1.40625 4.90362 1.40625 9.3219V59.9156ZM95.8406 55.2378C95.8406 55.2328 95.8452 55.2292 95.85 55.2303C98.6531 55.8828 101.201 57.3498 103.172 59.4469C103.765 60.064 104.315 60.7192 104.82 61.4081C105.647 62.5367 105.421 63.6667 104.268 64.4605C102.516 65.668 99.7831 67.4749 97.8375 68.6813C97.725 68.7563 97.275 68.2688 96.7781 67.5281C96.2151 66.5566 95.415 65.7435 94.4527 65.1648C93.4904 64.5861 92.3971 64.2606 91.275 64.2188C87.7219 63.975 85.4344 65.8406 85.4531 68.9063C85.4237 69.6695 85.5985 70.4268 85.9594 71.1C86.7375 72.7219 88.1906 73.6875 92.7469 75.6563C101.138 79.2656 104.728 81.6469 106.959 85.0313C109.453 88.7813 110.006 94.8375 108.319 99.3188C106.444 104.194 101.85 107.503 95.3531 108.6C92.3858 108.94 89.3877 108.908 86.4281 108.506C81.8922 107.759 77.7139 105.581 74.5031 102.291C73.8113 101.527 72.6988 99.9752 72.0249 98.902C71.5765 98.1878 71.7913 97.4864 72.5344 97.0875V97.0875L76.875 94.6875L79.1539 93.3671C79.7659 93.0126 80.5478 93.1922 80.9437 93.7781V93.7781C82.1304 95.4756 83.6405 96.922 85.3875 98.0344C89.1375 100.003 94.2562 99.7313 96.7875 97.4531C97.6374 96.6184 98.1676 95.5119 98.2858 94.3265C98.404 93.1411 98.1027 91.9518 97.4344 90.9656C96.4969 89.6625 94.6219 88.5656 89.3812 86.2781C83.3344 83.6719 80.7281 82.0594 78.3469 79.4906C76.8603 77.7955 75.7628 75.7956 75.1312 73.6313C74.6602 71.1586 74.5906 68.6261 74.925 66.1313C76.1719 60.2906 80.55 56.2125 86.9437 55.0031C89.9017 54.6371 92.898 54.7188 95.8316 55.2453C95.8363 55.2461 95.8406 55.2425 95.8406 55.2378V55.2378ZM68.3344 60.1407V60.1407C68.3344 62.7916 66.1853 64.9406 63.5344 64.9406H60.7266C56.5249 64.9406 53.1187 68.3468 53.1187 72.5485V102.886C53.1187 105.866 50.7032 108.281 47.7234 108.281V108.281C44.7437 108.281 42.3281 105.866 42.3281 102.886V72.5578C42.3281 68.3458 38.9136 64.9313 34.7016 64.9313H31.7625C29.1737 64.9313 27.075 62.8326 27.075 60.2438V60.2438C27.0539 59.5269 27.0496 58.8098 27.062 58.0929C27.0922 56.3421 28.13 55.3518 29.881 55.3389C33.447 55.3125 40.1811 55.3125 47.8125 55.3125H63.4497C66.1254 55.3125 68.3032 57.4651 68.3344 60.1407V60.1407Z" fill="#007ACC"/>
</svg>
